<svg width="13" height="13" viewBox="0 0 13 13" fill="none" xmlns="http://www.w3.org/2000/svg">
<g clip-path="url(#clip0)">
<path d="M2.70444 6.60256C2.7239 6.60937 2.74377 6.61195 2.7633 6.61195C2.80096 6.61195 2.83863 6.60097 2.8699 6.5772C2.91834 6.54384 2.9469 6.48749 2.9469 6.42828V4.37285C2.9469 4.27236 3.02945 4.19043 3.13077 4.19043C3.23168 4.19043 3.31395 4.27187 3.31395 4.37285V4.96228C3.31395 5.06047 3.39206 5.14108 3.49046 5.14546L3.78664 5.15713C3.84397 5.1645 3.88414 5.14212 3.92013 5.10612C3.95613 5.07228 3.97642 5.02489 3.97746 4.9752L3.9817 4.55582C3.9817 3.73637 4.64813 3.07036 5.46716 3.07036C5.62817 3.07036 5.79211 3.10059 5.97007 3.16341C5.98974 3.17126 6.01052 3.17397 6.03123 3.17397C6.03651 3.17397 6.0395 3.17397 6.04033 3.17397C6.14165 3.17397 6.224 3.0919 6.224 2.9901C6.224 2.94507 6.20808 2.90525 6.18209 2.87265C5.74221 1.82409 4.7343 1.14981 3.59838 1.14981C2.05177 1.14981 0.793968 2.40741 0.793968 3.95423C0.793482 5.1538 1.56171 6.21709 2.70444 6.60256ZM3.5979 1.51916C4.47363 1.51916 5.26216 1.97975 5.69544 2.72026C4.71797 2.59156 3.83403 3.27418 3.65016 4.19258C3.57524 3.97765 3.37073 3.82254 3.13036 3.82254C2.82654 3.82254 2.57963 4.06965 2.57963 4.37243V6.15809C1.72085 5.76414 1.16061 4.90807 1.16061 3.9552C1.16061 2.61192 2.25378 1.51916 3.5979 1.51916ZM8.03857 5.33823C8.15156 5.45567 8.44016 6.47644 6.71204 7.60373C6.71204 7.60373 7.42669 6.30111 7.45129 5.51154C7.45512 5.35921 7.73816 5.02558 8.03857 5.33823ZM12.5324 3.85068C12.4964 3.82171 12.4436 3.80009 12.4059 3.8067L5.72845 4.07222C5.71024 4.07348 5.69245 4.07709 5.67473 4.08258C5.64047 4.09384 5.33325 4.20871 5.30768 4.48612C5.28607 4.71183 5.46146 4.9285 5.83491 5.14511C5.86535 5.16498 5.91212 5.21134 5.91997 5.21217C5.91997 5.213 5.88953 5.2613 5.71247 5.31794C5.62067 5.34566 5.56688 5.44323 5.58974 5.53711C5.59058 5.54114 5.68071 5.93405 5.45368 6.22495C5.27043 6.46045 4.92366 6.58019 4.42416 6.58019L4.31582 6.5781C4.31582 6.57644 2.44364 6.41139 1.17061 7.74258C0.324342 8.627 -0.066064 9.95055 0.00926527 11.6758C0.0126704 11.7575 0.0712521 11.8269 0.151029 11.8455C0.165205 11.8489 0.178756 11.85 0.192932 11.85C0.258116 11.85 0.320937 11.814 0.354154 11.7549C0.362423 11.7418 1.19223 10.3458 6.03345 9.51219C7.36929 9.28287 8.65733 8.82422 9.72417 5.74955C9.72583 5.73878 9.76433 5.47999 10.1253 5.47999L12.3409 5.5581C12.3735 5.55233 12.409 5.54941 12.4386 5.53371C12.4594 5.5212 12.9519 5.23392 12.9967 4.74859C13.0254 4.44053 12.8693 4.13796 12.5324 3.85068ZM12.2954 5.19056L10.2038 5.11815C9.61312 5.06526 9.38845 5.49069 9.36851 5.6672C8.37623 8.51686 7.19543 8.94173 5.97042 9.1516C2.41577 9.76431 0.942403 10.6817 0.367566 11.1988C0.378337 9.80413 0.736359 8.72888 1.43468 7.99803C2.34975 7.04175 3.59991 6.93897 4.09483 6.93897C4.2095 6.93897 4.2785 6.9453 4.29289 6.9462C4.97391 6.95968 5.46841 6.80395 5.74304 6.45149C5.9732 6.15761 5.98745 5.81321 5.97049 5.61349C6.10065 5.5549 6.25701 5.45143 6.28126 5.27159C6.31406 5.02635 6.06292 4.85609 6.02615 4.83344C5.73061 4.66186 5.6707 4.54804 5.6732 4.52205C5.67508 4.503 5.72359 4.46214 5.77564 4.43886L12.3475 4.17716C12.5506 4.36569 12.6463 4.54678 12.6314 4.71516C12.6099 4.94838 12.3886 5.12558 12.2954 5.19056ZM4.95236 4.23636C5.1295 4.23636 5.27119 4.37938 5.27119 4.55436C5.27119 4.7308 5.12943 4.87381 4.95236 4.87381C4.77592 4.87381 4.63291 4.7308 4.63291 4.55436C4.63291 4.3798 4.77551 4.23636 4.95236 4.23636Z" fill="black"/>
</g>
<defs>
<clipPath id="clip0">
<rect width="13" height="13" fill="white"/>
</clipPath>
</defs>
</svg>
