<svg width="70" height="70" viewBox="0 0 70 70" fill="none" xmlns="http://www.w3.org/2000/svg">
<g clip-path="url(#clip0)">
<path d="M39.726 69.8633H28.4942C26.6181 69.8633 25.092 68.3402 25.092 66.4678V41.1833H18.5391C16.6631 41.1833 15.137 39.6597 15.137 37.7878V26.9534C15.137 25.081 16.6631 23.5578 18.5391 23.5578H25.092V18.1323C25.092 12.7528 26.7845 8.17589 29.9861 4.89731C33.202 1.60378 37.6964 -0.136719 42.9832 -0.136719L51.5491 -0.122833C53.422 -0.119629 54.9454 1.4035 54.9454 3.27271V13.3322C54.9454 15.2046 53.4198 16.7278 51.5443 16.7278L45.7769 16.7299C44.0181 16.7299 43.5702 17.0818 43.4744 17.1897C43.3165 17.3686 43.1287 17.8744 43.1287 19.2709V23.5573H51.1109C51.7118 23.5573 52.294 23.7052 52.7943 23.984C53.8736 24.5859 54.5446 25.724 54.5446 26.9539L54.5403 37.7883C54.5403 39.6597 53.0142 41.1828 51.1381 41.1828H43.1287V66.4678C43.1287 68.3402 41.6021 69.8633 39.726 69.8633ZM29.2037 65.7596H39.0165V39.3462C39.0165 38.0959 40.0358 37.0791 41.288 37.0791H50.4286L50.4323 27.6615H41.2874C40.0353 27.6615 39.0165 26.6447 39.0165 25.3944V19.2709C39.0165 17.6677 39.1797 15.8444 40.3922 14.474C41.8573 12.8174 44.1663 12.6262 45.7759 12.6262L50.8337 12.6241V3.9798L42.98 3.96698C34.4836 3.96698 29.2037 9.39514 29.2037 18.1323V25.3944C29.2037 26.6441 28.1849 27.6615 26.9328 27.6615H19.2487V37.0791H26.9328C28.1849 37.0791 29.2037 38.0959 29.2037 39.3462V65.7596ZM51.5411 3.98087H51.5416H51.5411Z" fill="black"/>
</g>
<defs>
<clipPath id="clip0">
<rect width="70" height="70" fill="white"/>
</clipPath>
</defs>
</svg>
