<svg width="70" height="70" id = "g-logo" viewBox="0 0 70 70" fill="none" xmlns="http://www.w3.org/2000/svg">
<path d="M69.3855 28.4639C69.2012 27.4966 68.3555 26.7969 67.3709 26.7969H35C33.8674 26.7969 32.9492 27.7151 32.9492 28.8477V41.1523C32.9492 42.2849 33.8674 43.2031 35 43.2031H51.5334C50.2868 45.7111 48.4981 47.8816 46.3511 49.5817C46.1703 49.6759 46.0007 49.7987 45.8489 49.9503C45.8332 49.9661 45.8198 49.9831 45.8047 49.9993C42.7115 52.271 38.9424 53.5938 35 53.5938C24.7111 53.5938 16.4062 45.2119 16.4062 35C16.4062 24.784 24.7156 16.4062 35 16.4062C38.9051 16.4062 42.7317 17.7315 46.0666 20.2388C46.8826 20.8525 48.0267 20.7721 48.749 20.0497L57.5002 11.2984C58.3507 10.4479 58.2895 9.04955 57.3676 8.27668C51.0009 2.93945 43.0574 0 35 0C25.7018 0 16.9266 3.65463 10.2907 10.2905C3.65449 16.9266 0 25.7019 0 35C0 44.2981 3.65449 53.0734 10.2907 59.7095C16.9266 66.3454 25.7018 70 35 70C44.2982 70 53.0734 66.3454 59.7093 59.7095C66.3455 53.0734 70 44.2981 70 35C70 32.8039 69.7931 30.6049 69.3855 28.4639ZM35 4.10156C41.3686 4.10156 47.6669 6.19555 52.961 10.0371L47.0621 15.9361C43.3669 13.5548 39.2309 12.3047 35 12.3047C28.9834 12.3047 23.2967 14.678 18.9874 18.9874C17.3674 20.6075 16.0211 22.4223 14.9715 24.376L8.96752 18.372C14.4643 9.79631 24.0796 4.10156 35 4.10156ZM6.91674 22.1216L13.2688 28.4737C12.6339 30.5676 12.3047 32.7608 12.3047 35C12.3047 37.2392 12.6339 39.4324 13.2688 41.5263L6.91674 47.8784C5.11082 43.9558 4.10156 39.5938 4.10156 35C4.10156 30.4062 5.11082 26.0442 6.91674 22.1216ZM8.96752 51.628L14.9715 45.624C16.0211 47.5777 17.3674 49.3925 18.9874 51.0126C23.2967 55.322 28.9834 57.6953 35 57.6953C39.328 57.6953 43.48 56.4595 47.1066 54.1082L53.0562 60.0579C47.9737 63.7305 41.7356 65.8984 35 65.8984C24.0796 65.8984 14.4643 60.2037 8.96752 51.628ZM56.2286 57.4299L50.3564 51.5576C53.1986 48.877 55.353 45.4744 56.521 41.7687C56.7174 41.1456 56.6051 40.4663 56.2189 39.9395C55.8325 39.4127 55.2184 39.1014 54.565 39.1014H37.0508V30.8983H65.6261C65.807 32.2536 65.8984 33.6271 65.8984 34.9999C65.8984 43.8237 62.18 51.7945 56.2286 57.4299Z" fill="black"/>
</svg>
