<svg width="16" height="16" viewBox="0 0 16 16" fill="none" xmlns="http://www.w3.org/2000/svg">
<path d="M14.5887 15.031L10.0249 10.4673C8.97245 11.4148 7.58495 11.9973 6.05994 11.9973C2.78619 11.9973 0.122437 9.33358 0.122437 6.05986C0.122437 2.78614 2.78619 0.122437 6.05994 0.122437C9.33368 0.122437 11.9974 2.78617 11.9974 6.05989C11.9974 7.58486 11.4149 8.97235 10.4668 10.0249L15.0306 14.5886C15.0918 14.6498 15.1224 14.7298 15.1224 14.8098C15.1224 14.8898 15.0918 14.9698 15.0312 15.0311C14.9087 15.1529 14.7112 15.1529 14.5887 15.031ZM11.3724 6.05989C11.3724 3.13055 8.98932 0.74745 6.05996 0.74745C3.1306 0.74745 0.747455 3.13052 0.747455 6.05989C0.747455 8.98925 3.13058 11.3723 6.05994 11.3723C8.9893 11.3723 11.3724 8.98922 11.3724 6.05989Z" fill="black"/>
</svg>
