<svg width="30" height="30" viewBox="0 0 30 30" fill="none" xmlns="http://www.w3.org/2000/svg">
<rect width="30" height="30" rx="3" fill="#8AC3CB"/>
<path d="M21.5887 23.031L17.0249 18.4673C15.9724 19.4148 14.585 19.9973 13.0599 19.9973C9.78619 19.9973 7.12244 17.3336 7.12244 14.0599C7.12244 10.7861 9.78619 8.12244 13.0599 8.12244C16.3337 8.12244 18.9974 10.7862 18.9974 14.0599C18.9974 15.5849 18.4149 16.9723 17.4668 18.0249L22.0306 22.5886C22.0918 22.6498 22.1224 22.7298 22.1224 22.8098C22.1224 22.8898 22.0918 22.9698 22.0312 23.0311C21.9087 23.1529 21.7112 23.1529 21.5887 23.031ZM18.3724 14.0599C18.3724 11.1306 15.9893 8.74745 13.06 8.74745C10.1306 8.74745 7.74745 11.1305 7.74745 14.0599C7.74745 16.9893 10.1306 19.3723 13.0599 19.3723C15.9893 19.3723 18.3724 16.9892 18.3724 14.0599Z" fill="black"/>
</svg>
