<svg width="13" height="13" viewBox="0 0 13 13" fill="none" xmlns="http://www.w3.org/2000/svg">
<path d="M9.232 7.98511C9.11557 7.88082 8.93668 7.891 8.83296 8.00715C8.24344 8.66591 7.39336 9.04348 6.50003 9.04348C5.60699 9.04348 4.75662 8.66591 4.1671 8.00715C4.06282 7.891 3.88449 7.88082 3.76806 7.98511C3.65163 8.08911 3.64202 8.26772 3.74602 8.38415C4.44265 9.16246 5.44647 9.6087 6.50003 9.6087C7.55388 9.6087 8.5577 9.16217 9.25405 8.38415C9.35805 8.26772 9.34815 8.08911 9.232 7.98511Z" fill="black"/>
<path d="M6.5 0C2.91596 0 0 2.91596 0 6.5C0 10.084 2.91596 13 6.5 13C10.084 13 13 10.084 13 6.5C13 2.91596 10.084 0 6.5 0ZM6.5 12.4348C3.22739 12.4348 0.565217 9.77261 0.565217 6.5C0.565217 3.22739 3.22739 0.565217 6.5 0.565217C9.77261 0.565217 12.4348 3.22739 12.4348 6.5C12.4348 9.77261 9.77261 12.4348 6.5 12.4348Z" fill="black"/>
<path d="M8.76082 4.52174C7.98167 4.52174 7.34778 5.15564 7.34778 5.93479C7.34778 6.09079 7.47439 6.2174 7.63039 6.2174C7.78639 6.2174 7.913 6.09079 7.913 5.93479C7.913 5.46735 8.29339 5.08696 8.76082 5.08696C9.22826 5.08696 9.60865 5.46735 9.60865 5.93479C9.60865 6.09079 9.73526 6.2174 9.89126 6.2174C10.0473 6.2174 10.1739 6.09079 10.1739 5.93479C10.1739 5.15564 9.53997 4.52174 8.76082 4.52174Z" fill="black"/>
<path d="M5.08692 5.93479C5.08692 6.09079 5.21353 6.2174 5.36953 6.2174C5.52553 6.2174 5.65214 6.09079 5.65214 5.93479C5.65214 5.15564 5.01825 4.52174 4.23909 4.52174C3.45994 4.52174 2.82605 5.15564 2.82605 5.93479C2.82605 6.09079 2.95266 6.2174 3.10866 6.2174C3.26466 6.2174 3.39127 6.09079 3.39127 5.93479C3.39127 5.46735 3.77166 5.08696 4.23909 5.08696C4.70653 5.08696 5.08692 5.46735 5.08692 5.93479Z" fill="black"/>
</svg>
