<svg width="38" height="31" viewBox="0 0 38 31" fill="none" xmlns="http://www.w3.org/2000/svg">
<rect width="38" height="31" rx="7" fill="#98BEA1"/>
<g clip-path="url(#clip0)">
<path d="M26.9635 18.1191C25.7921 17.1452 24.3979 16.4242 22.8766 15.9877C24.5059 15.0547 25.5763 13.4932 25.5763 11.7275C25.5763 8.87686 22.7871 6.55769 19.3587 6.55769C15.9304 6.55769 13.1411 8.87686 13.1411 11.7275C13.1411 13.4932 14.2115 15.0547 15.8408 15.9877C14.3196 16.4242 12.9254 17.1452 11.754 18.1191C9.7227 19.8081 8.604 22.0537 8.604 24.4423H10.2844C10.2844 20.2819 14.3551 16.8972 19.3587 16.8972C24.3623 16.8972 28.433 20.2819 28.433 24.4423H30.1134C30.1134 22.0537 28.9947 19.8081 26.9635 18.1191ZM19.3587 15.5C16.8569 15.5 14.8216 13.8077 14.8216 11.7275C14.8216 9.64726 16.8569 7.95493 19.3587 7.95493C21.8605 7.95493 23.8959 9.64726 23.8959 11.7275C23.8959 13.8077 21.8605 15.5 19.3587 15.5Z" fill="#1F2D0B"/>
</g>
<path d="M34.6323 15.2019C34.6323 22.2514 27.724 28.1154 19.0002 28.1154C10.2765 28.1154 3.36816 22.2514 3.36816 15.2019C3.36816 8.15243 10.2765 2.28846 19.0002 2.28846C27.724 2.28846 34.6323 8.15243 34.6323 15.2019Z" stroke="#CACEC4"/>
<defs>
<clipPath id="clip0">
<rect width="21.5094" height="17.8846" fill="white" transform="translate(8.604 6.55769)"/>
</clipPath>
</defs>
</svg>
