<svg width="90" height="90" viewBox="0 0 90 90" fill="none" xmlns="http://www.w3.org/2000/svg">
<g clip-path="url(#clip0)">
<path d="M45.5437 73.125C58.5637 73.125 53.9212 64.8825 54.9262 62.5125C54.9112 60.7425 54.8962 59.04 54.9562 58.005C55.7812 58.2375 57.7275 59.2237 61.7475 63.1312C67.9537 69.3937 69.54 73.125 74.5537 73.125H83.7825C86.7075 73.125 88.23 71.9137 88.9912 70.8975C89.7262 69.915 90.4462 68.19 89.6587 65.505C87.6 59.04 75.5925 47.8763 74.8462 46.6987C74.9587 46.4813 75.1387 46.1925 75.2325 46.0425H75.225C77.595 42.9112 86.64 29.3587 87.9712 23.9362C87.975 23.9287 87.9787 23.9175 87.9787 23.9062C88.6987 21.4313 88.0387 19.8263 87.3562 18.9188C86.3287 17.5613 84.6937 16.875 82.485 16.875H73.2562C70.1662 16.875 67.8225 18.4312 66.6375 21.27C64.6537 26.3138 59.0812 36.6863 54.9037 40.3575C54.7762 35.1562 54.8625 31.185 54.93 28.2337C55.065 22.4775 55.5 16.875 49.5262 16.875H35.0212C31.2787 16.875 27.6975 20.9625 31.575 25.815C34.965 30.0675 32.7937 32.4375 33.525 44.235C30.675 41.1787 25.605 32.925 22.02 22.3763C21.015 19.5225 19.4925 16.8787 15.2062 16.8787H5.9775C2.235 16.8787 0 18.9187 0 22.335C0 30.0075 16.9837 73.125 45.5437 73.125ZM15.2062 22.5037C16.02 22.5037 16.1025 22.5038 16.7062 24.2175C20.3775 35.0287 28.6125 51.0263 34.6275 51.0263C39.1462 51.0263 39.1462 46.395 39.1462 44.6512L39.1425 30.7687C38.895 26.175 37.2225 23.8875 36.1237 22.5L49.2787 22.515C49.2862 22.5788 49.2037 37.8713 49.3162 41.5763C49.3162 46.8375 53.4937 49.8525 60.015 43.2525C66.8962 35.4863 71.655 23.8763 71.8462 23.4038C72.1275 22.7288 72.3712 22.5 73.2562 22.5H82.485H82.5225C82.5187 22.5113 82.5187 22.5225 82.515 22.5337C81.6712 26.4712 73.3425 39.0188 70.5562 42.915C70.5112 42.975 70.47 43.0388 70.4287 43.1025C69.2025 45.105 68.205 47.3175 70.5975 50.43H70.6012C70.8187 50.6925 71.385 51.3075 72.21 52.1625C74.775 54.81 83.5725 63.8625 84.3525 67.4625C83.835 67.545 83.2725 67.485 74.5537 67.5037C72.6975 67.5037 71.2462 64.7287 65.7075 59.1413C60.7275 54.2962 57.495 52.3162 54.5512 52.3162C48.8362 52.3162 49.2525 56.955 49.305 62.565C49.3237 68.6475 49.2862 66.7238 49.3275 67.1063C48.9937 67.2375 48.0375 67.5 45.5437 67.5C21.75 67.5 6.255 29.7338 5.65875 22.515C5.865 22.4963 8.70375 22.5075 15.2062 22.5037Z" fill="black"/>
</g>
<defs>
<clipPath id="clip0">
<rect width="90" height="90" fill="white"/>
</clipPath>
</defs>
</svg>
